<svg width="64" height="64" viewBox="0 0 64 64" fill="white" xmlns="http://www.w3.org/2000/svg">

  <!-- Big star (moved + enlarged) -->
  <path d="M44 16
           C42 26 36 30 28 32
           C36 34 42 38 44 48
           C46 38 52 34 60 32
           C52 30 46 26 44 16Z"/>

  <!-- Medium star (unchanged) -->
  <path d="M32 42
           C31 46 29 48 25 49
           C29 50 31 52 32 56
           C33 52 35 50 39 49
           C35 48 33 46 32 42Z"/>

  <!-- Small star (moved DOWN 3px total, LEFT 1px) -->
  <path d="M26 33
           C25 35 24 36 22 37
           C24 38 25 39 26 41
           C27 39 28 38 30 37
           C28 36 27 35 26 33Z"/>

</svg>

