<?xml version="1.0" encoding="UTF-8"?>
<svg version="1.1" xmlns="http://www.w3.org/2000/svg" width="272" height="248">
<path d="M0 0 C1.04929688 0.36609375 2.09859375 0.7321875 3.1796875 1.109375 C16.69490965 6.23462808 29.14961469 15.01401678 36.0546875 27.88671875 C38.90892176 34.26746558 38.77687082 40.50174773 36.4375 47 C30.02286064 61.72656643 14.97748531 69.9505615 0.84570312 75.90820312 C-8.18852297 79.44333508 -17.52898343 81.72022716 -27 83.75 C-27.92369385 83.94883789 -28.8473877 84.14767578 -29.79907227 84.35253906 C-45.15467068 87.44621124 -60.42414732 88.33132439 -76.05810547 88.26074219 C-78.86578077 88.25003516 -81.67281279 88.26070437 -84.48046875 88.2734375 C-100.95750914 88.28738942 -117.27382954 87.15380224 -133.4375 83.8125 C-134.47825684 83.59891846 -135.51901367 83.38533691 -136.59130859 83.1652832 C-159.22531677 78.30825163 -184.10939283 70.5054948 -197.625 50.39453125 C-201.46283266 43.71103289 -202.31852445 37.12388615 -200.3828125 29.6015625 C-196.15778675 18.9455241 -187.73079354 12.42557828 -178 7 C-176.97261719 6.41347656 -175.94523437 5.82695313 -174.88671875 5.22265625 C-126.08187739 -20.98628911 -50.85274805 -18.30235579 0 0 Z " fill="#02C4E1" transform="translate(218,27)"/>
<path d="M0 0 C4.06486186 0.80774089 5.02960995 2.06150961 7.375 5.5 C19.90276929 21.7028898 43.09388373 27.92532971 62 33 C63.1446875 33.30808594 64.289375 33.61617187 65.46875 33.93359375 C68.96150926 34.76787907 72.45594869 35.43438209 76 36 C76.84578613 36.13535156 77.69157227 36.27070313 78.56298828 36.41015625 C124.60549209 43.42194555 181.77707816 42.22824355 221.58203125 15.25 C226.79510954 11.37693354 232.05001741 6.89996518 235 1 C235.99 1 236.98 1 238 1 C238.08772579 5.33320395 238.14063579 9.66617668 238.1875 14 C238.21263672 15.22074219 238.23777344 16.44148438 238.26367188 17.69921875 C238.35517891 28.98508643 236.38939151 35.33976131 228.5 43.62109375 C211.39070288 59.90165929 186.63131634 66.75307725 164 71 C163.25556641 71.15098145 162.51113281 71.30196289 161.74414062 71.45751953 C117.83537074 80.1325898 61.75951237 76.05144866 22.9375 52.5625 C13.35998823 46.02357672 4.23695606 38.49338707 1 27 C0.68115234 23.84033203 0.68115234 23.84033203 0.5859375 20.5078125 C0.54726563 19.30898437 0.50859375 18.11015625 0.46875 16.875 C0.4378125 15.6375 0.406875 14.4 0.375 13.125 C0.33632813 11.86429688 0.29765625 10.60359375 0.2578125 9.3046875 C0.16383011 6.20326863 0.07816589 3.10185114 0 0 Z " fill="#04C4E1" transform="translate(17,157)"/>
<path d="M0 0 C3.69474822 1.23158274 4.36413034 2.57531522 6.625 5.6875 C10.60249412 10.74911255 14.38478113 13.91364949 20 17 C21.15371094 17.63679688 22.30742188 18.27359375 23.49609375 18.9296875 C40.70747905 28.1136024 58.87577466 32.63163307 78 36 C78.93489258 36.16661133 79.86978516 36.33322266 80.83300781 36.50488281 C107.72010097 41.08564683 136.1522525 40.46681547 163 36 C163.74459473 35.8772168 164.48918945 35.75443359 165.25634766 35.62792969 C169.54175717 34.89605312 173.76942046 33.99800783 178 33 C179.21300781 32.72542969 180.42601562 32.45085937 181.67578125 32.16796875 C199.67613192 27.77535981 218.20658291 19.74017851 231 6 C231.52464844 5.08476563 232.04929688 4.16953125 232.58984375 3.2265625 C233.05519531 2.49179688 233.52054688 1.75703125 234 1 C234.99 1 235.98 1 237 1 C237.11719343 5.31226745 237.18758416 9.62411934 237.25 13.9375 C237.28351563 15.14986328 237.31703125 16.36222656 237.3515625 17.61132812 C237.46465509 28.04411985 235.58915684 34.85372706 228.375 42.5625 C227.59898437 43.40941406 226.82296875 44.25632813 226.0234375 45.12890625 C224 47 224 47 222 47 C222 47.66 222 48.32 222 49 C197.85052237 63.5094273 172.90564453 70.01226715 145 73 C144.31147949 73.07734375 143.62295898 73.1546875 142.91357422 73.234375 C101.21778762 77.65134654 46.46873569 72.74112697 12.4375 46.375 C6.25537355 40.77495689 0.39432564 33.44974988 -0.22705078 24.86206055 C-0.21657715 23.71519775 -0.20610352 22.56833496 -0.1953125 21.38671875 C-0.18886719 20.13955078 -0.18242187 18.89238281 -0.17578125 17.60742188 C-0.15902344 16.31384766 -0.14226563 15.02027344 -0.125 13.6875 C-0.11597656 12.37458984 -0.10695313 11.06167969 -0.09765625 9.70898438 C-0.07411797 6.47247087 -0.0412352 3.23632851 0 0 Z " fill="#05C3DF" transform="translate(18,100)"/>
<path d="M0 0 C4.06486186 0.80774089 5.02960995 2.06150961 7.375 5.5 C19.90276929 21.7028898 43.09388373 27.92532971 62 33 C63.1446875 33.30808594 64.289375 33.61617187 65.46875 33.93359375 C68.96150926 34.76787907 72.45594869 35.43438209 76 36 C76.84578613 36.13535156 77.69157227 36.27070313 78.56298828 36.41015625 C111.64908551 41.44882103 147.13747187 40.99644935 179.65625 32.76953125 C183 32 183 32 187 32 C187 32.66 187 33.32 187 34 C181.06 34.495 181.06 34.495 175 35 C174.67 35.99 174.34 36.98 174 38 C171.4375 39.1875 171.4375 39.1875 169 40 C171.31 40.66 173.62 41.32 176 42 C175.67 42.66 175.34 43.32 175 44 C171.7 43.34 168.4 42.68 165 42 C165 41.67 165 41.34 165 41 C163.983685 41.1065818 163.983685 41.1065818 162.94683838 41.21531677 C154.20269129 42.0466291 145.50791872 42.12958811 136.734375 42.09765625 C135.20452928 42.09578621 133.67468296 42.09436509 132.14483643 42.09336853 C128.15995569 42.0895894 124.17511265 42.07979966 120.19024658 42.06866455 C116.10730499 42.05835022 112.02435718 42.05384965 107.94140625 42.04882812 C99.96092039 42.03817224 91.98046491 42.02115269 84 42 C84 41.34 84 40.68 84 40 C73.605 40.495 73.605 40.495 63 41 C63 40.34 63 39.68 63 39 C64.485 38.505 64.485 38.505 66 38 C63.03 37.34 60.06 36.68 57 36 C57 35.34 57 34.68 57 34 C55.4840625 33.8453125 55.4840625 33.8453125 53.9375 33.6875 C49.89247795 32.98122631 46.73723887 31.66099505 43 30 C40.22111387 29.30859478 40.22111387 29.30859478 38 29 C38 28.34 38 27.68 38 27 C37.18208984 26.76216797 37.18208984 26.76216797 36.34765625 26.51953125 C30.43878753 24.69131717 25.30135828 22.17078876 20 19 C19.67 19.66 19.34 20.32 19 21 C19.66 21.33 20.32 21.66 21 22 C20.01 24.97 19.02 27.94 18 31 C17.01 31 16.02 31 15 31 C15 32.32 15 33.64 15 35 C14.34 35 13.68 35 13 35 C13.495 32.03 13.495 32.03 14 29 C13.01 29.33 12.02 29.66 11 30 C10.7506643 28.39884424 10.52621352 26.79379841 10.3125 25.1875 C10.18488281 24.29417969 10.05726562 23.40085938 9.92578125 22.48046875 C10 20 10 20 11.48046875 18.17578125 C11.98191406 17.78777344 12.48335937 17.39976562 13 17 C8.73879185 17.47346757 6.86533763 20.02061908 4 23 C3.97315321 20.35409986 3.95323643 17.70846904 3.9375 15.0625 C3.92912109 14.30775391 3.92074219 13.55300781 3.91210938 12.77539062 C3.90347559 10.85005687 3.94775667 8.92464419 4 7 C4.33 6.67 4.66 6.34 5 6 C4.67 5.34 4.34 4.68 4 4 C3.8533068 7.97877103 3.76546488 11.9568359 3.6875 15.9375 C3.6246582 17.61295898 3.6246582 17.61295898 3.56054688 19.32226562 C3.46053 26.14341626 4.13803737 30.60307855 8.01489258 36.29516602 C8.33997803 36.85776123 8.66506348 37.42035645 9 38 C8.67 38.66 8.34 39.32 8 40 C3.17438784 33.65051032 0.81871676 28.65508664 0.5859375 20.5078125 C0.54726563 19.30898437 0.50859375 18.11015625 0.46875 16.875 C0.4378125 15.6375 0.406875 14.4 0.375 13.125 C0.33632813 11.86429688 0.29765625 10.60359375 0.2578125 9.3046875 C0.16383011 6.20326863 0.07816589 3.10185114 0 0 Z " fill="#118AA0" transform="translate(17,157)"/>
<path d="M0 0 C5.54099893 0.53503541 10.47120881 1.56520099 15.6875 3.5625 C16.37666504 3.82571045 17.06583008 4.0889209 17.77587891 4.36010742 C32.36063861 10.16342331 46.18661112 19.44298095 53 34 C55.14902189 41.01748507 54.19685489 46.93031786 51.33984375 53.5390625 C49.14243776 57.57511432 46.22194946 60.75562398 43 64 C42.195625 64.825 41.39125 65.65 40.5625 66.5 C40.046875 66.995 39.53125 67.49 39 68 C38.01 67.505 38.01 67.505 37 67 C37.33 65.02 37.66 63.04 38 61 C39.65 61.33 41.3 61.66 43 62 C43 61.01 43 60.02 43 59 C42.01 59 41.02 59 40 59 C39.94578777 55.95809137 39.90622452 52.91716001 39.875 49.875 C39.85824219 49.0190625 39.84148437 48.163125 39.82421875 47.28125 C39.78693319 42.43412707 40.10419357 38.55292095 42 34 C41.34 34 40.68 34 40 34 C39.979375 32.783125 39.95875 31.56625 39.9375 30.3125 C39.62016348 27.60552328 39.33565204 26.35504902 37.4453125 24.35546875 C34.04088845 21.78913898 34.04088845 21.78913898 30 21 C30.33 18.36 30.66 15.72 31 13 C28.69 12.67 26.38 12.34 24 12 C24 11.34 24 10.68 24 10 C22.948125 9.8453125 22.948125 9.8453125 21.875 9.6875 C18.58179047 8.89999337 16.00223054 7.56115988 13 6 C8.72425324 4.09118448 4.46360996 2.41529096 0 1 C0 0.67 0 0.34 0 0 Z " fill="#02C4E0" transform="translate(202,23)"/>
<path d="M0 0 C0.7396701 0.00093658 1.47934021 0.00187317 2.24142456 0.00283813 C24.26741528 0.06284479 45.10039761 2.38290125 66.625 7.1875 C66.625 7.5175 66.625 7.8475 66.625 8.1875 C65.17446156 8.04314558 63.72394563 7.89856496 62.2734375 7.75390625 C61.35401367 7.66254395 60.43458984 7.57118164 59.48730469 7.47705078 C57.70090003 7.29633806 55.91498208 7.11066244 54.12988281 6.91748047 C40.4937222 5.45125567 26.95288059 4.99337204 13.25 5 C12.43911926 4.99918427 11.62823853 4.99836853 10.79278564 4.99752808 C8.47895299 4.99779204 6.16535575 5.00657141 3.8515625 5.01953125 C2.80005005 5.02132889 2.80005005 5.02132889 1.72729492 5.02316284 C-1.94761495 5.01411476 -1.94761495 5.01411476 -5.375 6.1875 C-5.375 5.5275 -5.375 4.8675 -5.375 4.1875 C-6.46554688 4.24808594 -7.55609375 4.30867188 -8.6796875 4.37109375 C-9.76032471 4.43103516 -9.76032471 4.43103516 -10.86279297 4.4921875 C-12.46861534 4.58152759 -14.07440927 4.67138027 -15.68017578 4.76171875 C-19.93209607 5.00019062 -24.18413054 5.23022844 -28.4375 5.44140625 C-29.24461426 5.48273682 -30.05172852 5.52406738 -30.88330078 5.56665039 C-32.43359872 5.6458125 -33.98405552 5.72193582 -35.53466797 5.79467773 C-38.95238028 5.97244857 -42.07046398 6.34503924 -45.375 7.1875 C-47.96156673 7.41038501 -50.53452778 7.60064385 -53.125 7.75 C-53.82238281 7.79318359 -54.51976562 7.83636719 -55.23828125 7.88085938 C-56.95031922 7.98639596 -58.66263561 8.0873991 -60.375 8.1875 C-60.375 9.1775 -60.375 10.1675 -60.375 11.1875 C-61.220625 11.30867188 -62.06625 11.42984375 -62.9375 11.5546875 C-69.19861977 12.47962565 -75.25796715 13.57775451 -81.375 15.1875 C-83.37101306 15.5439309 -85.369845 15.88672675 -87.375 16.1875 C-66.75624568 -1.03639889 -24.96319983 -0.04124401 0 0 Z " fill="#1D889E" transform="translate(135.375,14.8125)"/>
<path d="M0 0 C2.15825637 0.96749423 3.7900609 1.78093311 5.4375 3.5 C7.42295372 5.40603557 9.43925147 6.0397193 12 7 C12.99 7.66 13.98 8.32 15 9 C15 8.01 15 7.02 15 6 C12.525 5.01 12.525 5.01 10 4 C10 3.01 10 2.02 10 1 C13.40312738 2.05875074 16.01353231 3.00902154 19 5 C19 5.66 19 6.32 19 7 C19.99 7.33 20.98 7.66 22 8 C21.01 8.495 21.01 8.495 20 9 C20 9.99 20 10.98 20 12 C20.99 12 21.98 12 23 12 C23 12.66 23 13.32 23 14 C28.22856953 16.16641925 33.58337897 17.96214958 38.9375 19.7890625 C40.03964844 20.17191406 40.03964844 20.17191406 41.1640625 20.5625 C41.82873535 20.79066406 42.4934082 21.01882812 43.17822266 21.25390625 C45 22 45 22 48 24 C51.27173195 25.09057732 54.06196442 25.28318695 57.5 25.5 C60.93803558 25.71681305 63.72826805 25.90942268 67 27 C68.89212737 27.22179785 70.78884472 27.40614015 72.6875 27.5625 C73.68136719 27.64628906 74.67523438 27.73007813 75.69921875 27.81640625 C76.83810547 27.90728516 76.83810547 27.90728516 78 28 C78 28.66 78 29.32 78 30 C82.29 30 86.58 30 91 30 C91 30.33 91 30.66 91 31 C98.24213548 32.15260213 105.30676938 32.18390911 112.625 32.1875 C113.91535156 32.19974609 115.20570313 32.21199219 116.53515625 32.22460938 C123.87080413 32.23569041 130.83890886 31.77540975 138.06201172 30.47363281 C141.2125161 29.9657403 144.3148684 29.73679937 147.5 29.5625 C154.19569559 29.12102557 160.51855738 27.68666019 167 26 C166.67 25.01 166.34 24.02 166 23 C167.794375 23.2475 167.794375 23.2475 169.625 23.5 C173.10548715 23.93970567 176.48771488 24.08780713 180 24 C151.44524602 43.03650265 92.73073327 36.31060746 61 30 C38.79912256 25.33314889 16.2518459 17.45248597 0 1 C0 0.67 0 0.34 0 0 Z " fill="#176F83" transform="translate(26,197)"/>
<path d="M0 0 C-8.54891638 5.69927758 -19.89942777 7.58242577 -29.8125 9.6875 C-30.74666748 9.88964111 -31.68083496 10.09178223 -32.64331055 10.30004883 C-48.05075875 13.44274453 -63.36461602 14.33159316 -79.05810547 14.26074219 C-81.86578077 14.25003516 -84.67281279 14.26070437 -87.48046875 14.2734375 C-104.24696063 14.28800177 -120.69923975 13.05297405 -137.125 9.5625 C-138.14335937 9.35818359 -139.16171875 9.15386719 -140.2109375 8.94335938 C-146.59078112 7.63058386 -152.7966239 5.98422471 -159 4 C-159 3.67 -159 3.34 -159 3 C-148.44191344 2.81548975 -148.44191344 2.81548975 -144 4 C-143.67 3.01 -143.34 2.02 -143 1 C-142.34 1 -141.68 1 -141 1 C-140.67 1.99 -140.34 2.98 -140 4 C-138.35 4 -136.7 4 -135 4 C-135 4.66 -135 5.32 -135 6 C-129.92523206 7.26305335 -125.27203646 8.27036084 -120 8 C-120 8.66 -120 9.32 -120 10 C-111.87119505 10.89309867 -103.83416885 11.1602224 -95.66015625 11.16796875 C-94.41681015 11.17129715 -93.17346405 11.17462555 -91.8924408 11.17805481 C-89.27798835 11.18308956 -86.66352955 11.18546421 -84.04907227 11.18530273 C-80.07752808 11.18749172 -76.10626092 11.20569164 -72.13476562 11.22460938 C-69.58073011 11.22754363 -67.02669328 11.22952821 -64.47265625 11.23046875 C-63.30042007 11.23765427 -62.1281839 11.24483978 -60.92042542 11.25224304 C-50.577884 11.22395323 -41.50870114 10.14925141 -32 6 C-29.42620782 5.44598033 -26.84474505 5.0271639 -24.24609375 4.60546875 C-19.62713773 3.74393062 -15.10551968 2.5444308 -10.57055664 1.32055664 C-6.96228834 0.37520377 -3.7332067 -0.21620888 0 0 Z " fill="#1E8DA2" transform="translate(221,101)"/>
<path d="M0 0 C0.33 0.66 0.66 1.32 1 2 C-2.42936281 3.71468141 -6.36445731 3.34854116 -10.15234375 3.5234375 C-13.37534371 4.06281472 -13.85161752 4.71806942 -16 7 C-18.48046875 7.73046875 -18.48046875 7.73046875 -21.1875 8.1875 C-22.08855469 8.34605469 -22.98960937 8.50460938 -23.91796875 8.66796875 C-24.60503906 8.77753906 -25.29210937 8.88710937 -26 9 C-24.68 9.66 -23.36 10.32 -22 11 C-22 11.33 -22 11.66 -22 12 C-25.81893387 12.06699884 -29.29448835 12.12222877 -33.06640625 11.46875 C-38.22898771 10.85354665 -43.19401835 11.15796947 -48.375 11.4375 C-71.35202437 12.5076209 -93.91624835 12.47717333 -116.6875 9.0625 C-117.82372803 8.89266602 -118.95995605 8.72283203 -120.13061523 8.54785156 C-121.20512939 8.37866211 -122.27964355 8.20947266 -123.38671875 8.03515625 C-124.34795654 7.8844165 -125.30919434 7.73367676 -126.29956055 7.57836914 C-129.03503785 6.99249573 -131.43907761 6.11449434 -134 5 C-134 4.67 -134 4.34 -134 4 C-128.53945522 4.46500801 -123.13854682 5.1057198 -117.7265625 5.97265625 C-89.52661328 10.38633528 -61.21324874 10.69400183 -33 6 C-32.25540527 5.8772168 -31.51081055 5.75443359 -30.74365234 5.62792969 C-22.35514146 4.19531174 -14.20737893 2.04771792 -6.046875 -0.328125 C-3 -1 -3 -1 0 0 Z " fill="#1A7C92" transform="translate(214,130)"/>
<path d="M0 0 C0.99 0 1.98 0 3 0 C3.11719343 4.31226745 3.18758416 8.62411934 3.25 12.9375 C3.30027344 14.75604492 3.30027344 14.75604492 3.3515625 16.61132812 C3.45132627 25.81453594 2.21502877 33.15667381 -4.25 40.0625 C-4.77078125 40.63097656 -5.2915625 41.19945312 -5.828125 41.78515625 C-6.21484375 42.18605469 -6.6015625 42.58695313 -7 43 C-7.66 41.68 -8.32 40.36 -9 39 C-8.06414062 38.86078125 -8.06414062 38.86078125 -7.109375 38.71875 C-4.54876722 38.12184975 -4.54876722 38.12184975 -3.25 34.5 C-1.7664891 30.04140475 -1.46926429 25.66435041 -2 21 C-2.33 20.67 -2.66 20.34 -3 20 C-2.30232558 13.60465116 -2.30232558 13.60465116 -1 11 C-2.32 11 -3.64 11 -5 11 C-5 12.32 -5 13.64 -5 15 C-5.68707031 15.24234375 -6.37414062 15.4846875 -7.08203125 15.734375 C-7.98308594 16.06953125 -8.88414062 16.4046875 -9.8125 16.75 C-10.70582031 17.07484375 -11.59914062 17.3996875 -12.51953125 17.734375 C-15.24295161 19.12396271 -16.38324384 20.44326932 -18 23 C-18 22.34 -18 21.68 -18 21 C-19.32 21.33 -20.64 21.66 -22 22 C-22.33 23.32 -22.66 24.64 -23 26 C-27.99367864 26.7282448 -32.99109914 27.38487182 -38 28 C-35.696784 25.696784 -33.28473915 24.69694577 -30.33740234 23.38671875 C-18.8401883 18.27355552 -5.90642225 11.81284451 0 0 Z " fill="#1F8BA2" transform="translate(252,101)"/>
<path d="M0 0 C0.99 0.33 1.98 0.66 3 1 C2.34 1 1.68 1 1 1 C1 1.66 1 2.32 1 3 C0.34 3 -0.32 3 -1 3 C-1.33 4.32 -1.66 5.64 -2 7 C-1.195625 7.268125 -0.39125 7.53625 0.4375 7.8125 C1.283125 8.204375 2.12875 8.59625 3 9 C3.33 9.99 3.66 10.98 4 12 C0.04179141 11.43454163 -2.6659053 10.19097652 -6 8 C-6 9.98 -6 11.96 -6 14 C-6.99 13.67 -7.98 13.34 -9 13 C-9.2475 13.7425 -9.495 14.485 -9.75 15.25 C-11.09147301 18.20124062 -12.60905526 19.84814974 -15 22 C-15.37211538 15.42596154 -15.37211538 15.42596154 -13.48828125 13.26953125 C-12.99714844 12.85058594 -12.50601563 12.43164062 -12 12 C-17.01698309 15.63378311 -17.01698309 15.63378311 -19.9375 20.875 C-19.958125 21.57625 -19.97875 22.2775 -20 23 C-21.65 23 -23.3 23 -25 23 C-25 28.94 -25 34.88 -25 41 C-23.68 41.66 -22.36 42.32 -21 43 C-21 42.34 -21 41.68 -21 41 C-20.34 41 -19.68 41 -19 41 C-17.79727181 43.40545638 -17.89928528 44.94996953 -17.9375 47.625 C-17.94652344 48.44226563 -17.95554687 49.25953125 -17.96484375 50.1015625 C-17.97644531 50.72804687 -17.98804688 51.35453125 -18 52 C-17.37609375 52.10183594 -16.7521875 52.20367187 -16.109375 52.30859375 C-14 53 -14 53 -12.25 56.0625 C-11.8375 57.031875 -11.425 58.00125 -11 59 C-18.12700439 56.09640562 -23.90155848 48.41028387 -27.15234375 41.578125 C-29.10653253 35.63450936 -28.80148994 29.17964278 -26.5 23.375 C-21.62177714 13.85651636 -14.08157569 8.2398927 -5 3 C-4.12730469 2.41992188 -3.25460938 1.83984375 -2.35546875 1.2421875 C-1.57816406 0.83226563 -0.80085938 0.42234375 0 0 Z " fill="#0FC4E1" transform="translate(45,31)"/>
<path d="M0 0 C0.99 0 1.98 0 3 0 C3.08772579 4.33320395 3.14063579 8.66617668 3.1875 13 C3.21263672 14.22074219 3.23777344 15.44148437 3.26367188 16.69921875 C3.34255516 26.42815741 2.48950963 32.98832624 -4.4375 40.3125 C-5.19933594 41.13363281 -5.96117187 41.95476562 -6.74609375 42.80078125 C-12.07460036 48 -12.07460036 48 -15 48 C-15.33 47.01 -15.66 46.02 -16 45 C-13.525 44.505 -13.525 44.505 -11 44 C-11.33 43.01 -11.66 42.02 -12 41 C-10.35 41 -8.7 41 -7 41 C-7.33 39.35 -7.66 37.7 -8 36 C-5 34 -5 34 -1 34 C-0.04623433 30.79217914 0.11621181 27.91812604 0.09765625 24.578125 C0.09443359 23.55332031 0.09121094 22.52851563 0.08789062 21.47265625 C0.07951172 20.40917969 0.07113281 19.34570312 0.0625 18.25 C0.05798828 17.17105469 0.05347656 16.09210938 0.04882812 14.98046875 C0.03705727 12.32025617 0.02061399 9.66015635 0 7 C-1.31587941 8.12104533 -2.62760353 9.24696965 -3.9375 10.375 C-4.66839844 11.00148437 -5.39929688 11.62796875 -6.15234375 12.2734375 C-8.08380906 13.87747714 -8.08380906 13.87747714 -9 16 C-9.66 16 -10.32 16 -11 16 C-11.165 16.639375 -11.33 17.27875 -11.5 17.9375 C-13 20 -13 20 -14.9140625 20.48828125 C-16.93575155 20.7275978 -18.96841939 20.86893028 -21 21 C-21.33 21.99 -21.66 22.98 -22 24 C-23.8125 24.87890625 -23.8125 24.87890625 -26 25.5625 C-28.14541038 26.20681284 -28.14541038 26.20681284 -30 27 C-30.33 27.66 -30.66 28.32 -31 29 C-33.29296875 29.37890625 -33.29296875 29.37890625 -36.1875 29.5625 C-40.17963287 29.85359302 -44.06149279 30.25487701 -48 31 C-44.69079819 28.79386546 -41.33990816 27.62310601 -37.625 26.3125 C-23.84385866 21.2763322 -6.93549072 13.87098143 0 0 Z " fill="#237F95" transform="translate(252,158)"/>
<path d="M0 0 C5.54099893 0.53503541 10.47120881 1.56520099 15.6875 3.5625 C16.37666504 3.82571045 17.06583008 4.0889209 17.77587891 4.36010742 C32.36063861 10.16342331 46.18661112 19.44298095 53 34 C55.14902189 41.01748507 54.19685489 46.93031786 51.33984375 53.5390625 C49.14243776 57.57511432 46.22194946 60.75562398 43 64 C42.195625 64.825 41.39125 65.65 40.5625 66.5 C40.046875 66.995 39.53125 67.49 39 68 C38.01 67.505 38.01 67.505 37 67 C37.33 65.02 37.66 63.04 38 61 C39.65 61.33 41.3 61.66 43 62 C42.505 60.02 42.505 60.02 42 58 C44.475 57.505 44.475 57.505 47 57 C47.28875 55.96875 47.5775 54.9375 47.875 53.875 C48.82308798 50.54992003 49.88256594 47.27248547 51 44 C50.01 44 49.02 44 48 44 C48 43.01 48 42.02 48 41 C48.66 41 49.32 41 50 41 C48.70897539 31.64058739 48.70897539 31.64058739 43.75 24.375 C42.8425 23.92125 41.935 23.4675 41 23 C38.95950578 21.7295036 36.94982535 20.40568804 35 19 C35 18.34 35 17.68 35 17 C34.34 17 33.68 17 33 17 C33 16.34 33 15.68 33 15 C32.34 15 31.68 15 31 15 C31 14.34 31 13.68 31 13 C28.69 12.67 26.38 12.34 24 12 C24 11.34 24 10.68 24 10 C22.948125 9.8453125 22.948125 9.8453125 21.875 9.6875 C18.58179047 8.89999337 16.00223054 7.56115988 13 6 C8.72425324 4.09118448 4.46360996 2.41529096 0 1 C0 0.67 0 0.34 0 0 Z " fill="#2897AD" transform="translate(202,23)"/>
<path d="M0 0 C-23.12824039 14.31571149 -48.15729518 20.12607136 -75 23 C-75.68852051 23.07734375 -76.37704102 23.1546875 -77.08642578 23.234375 C-87.72645117 24.36150781 -98.38944353 23.93878975 -109.0625 23.625 C-110.15300156 23.59327698 -110.15300156 23.59327698 -111.26553345 23.56091309 C-118.5516222 23.33912186 -125.78533606 23.10706157 -133 22 C-133 21.67 -133 21.34 -133 21 C-112.21 21 -91.42 21 -70 21 C-70 20.34 -70 19.68 -70 19 C-69.07058594 18.93941406 -68.14117187 18.87882812 -67.18359375 18.81640625 C-58.05853115 18.20428448 -58.05853115 18.20428448 -49 17 C-49 16.34 -49 15.68 -49 15 C-46.69 15.33 -44.38 15.66 -42 16 C-42 15.34 -42 14.68 -42 14 C-37.59658785 12.20601727 -33.49915225 10.82912289 -28.8125 10 C-24.9241762 9.29843699 -22.35769223 8.1105494 -19 6 C-16.1875 5.8125 -16.1875 5.8125 -14 6 C-13.67 5.01 -13.34 4.02 -13 3 C-12.01 3.495 -12.01 3.495 -11 4 C-10.443125 3.319375 -10.443125 3.319375 -9.875 2.625 C-7.03452411 0.16325423 -3.55425713 -1.77712856 0 0 Z " fill="#145968" transform="translate(238,150)"/>
<path d="M0 0 C-8.54891638 5.69927758 -19.89942777 7.58242577 -29.8125 9.6875 C-30.74666748 9.88964111 -31.68083496 10.09178223 -32.64331055 10.30004883 C-49.45230989 13.72862241 -66.01862913 14.27414257 -83.125 14.125 C-85.16275595 14.11493621 -87.20051679 14.10581645 -89.23828125 14.09765625 C-94.15897824 14.07594406 -99.07943268 14.0416075 -104 14 C-104 13.67 -104 13.34 -104 13 C-102.34738159 12.970271 -102.34738159 12.970271 -100.66137695 12.93994141 C-66.84711511 13.95721896 -66.84711511 13.95721896 -34.37890625 6.9375 C-31.02268979 5.61485312 -27.65576443 5.1338515 -24.10546875 4.5703125 C-19.53208389 3.73042044 -15.05739199 2.53141936 -10.56958008 1.3203125 C-6.96163874 0.37502381 -3.7328572 -0.21618864 0 0 Z " fill="#1A6B7E" transform="translate(221,101)"/>
<path d="M0 0 C2.31258946 -0.02801252 4.62481388 -0.04729925 6.9375 -0.0625 C8.22527344 -0.07410156 9.51304688 -0.08570313 10.83984375 -0.09765625 C15.14351304 -0.06579716 19.42520659 0.19435084 23.71875 0.46875 C33.99320875 1.11715419 44.27151348 1.33971201 54.5625 1.5625 C56.46029282 1.60584195 58.35807936 1.64946026 60.25585938 1.69335938 C64.83717362 1.79874592 69.41855563 1.90043818 74 2 C74 1.34 74 0.68 74 0 C76.64 0 79.28 0 82 0 C82 0.99 82 1.98 82 3 C72.37532129 4.16045975 62.80130296 4.15732239 53.125 4.125 C52.30596191 4.1234491 51.48692383 4.12189819 50.64306641 4.12030029 C15.92468672 4.04312195 15.92468672 4.04312195 0 1 C0 0.67 0 0.34 0 0 Z " fill="#32C1DB" transform="translate(86,168)"/>
<path d="M0 0 C1.50433594 0.01353516 1.50433594 0.01353516 3.0390625 0.02734375 C3.80992187 0.03894531 4.58078125 0.05054688 5.375 0.0625 C-1.75833011 3.92840906 -9.89599453 4.29326072 -17.86328125 4.71875 C-21.1637724 5.02035251 -24.32329114 5.5191266 -27.5859375 6.08203125 C-35.05827063 7.26083461 -42.38697178 7.32190979 -49.9375 7.25 C-51.24267578 7.24935547 -52.54785156 7.24871094 -53.89257812 7.24804688 C-60.22332723 7.21910998 -66.36873937 7.0536693 -72.625 6.0625 C-72.625 5.7325 -72.625 5.4025 -72.625 5.0625 C-71.2169812 5.04062622 -71.2169812 5.04062622 -69.78051758 5.01831055 C-46.65375583 4.63325075 -22.59946011 -0.26278442 0 0 Z " fill="#32BFD7" transform="translate(188.625,222.9375)"/>
<path d="M0 0 C13.35979075 -0.794525 28.78512272 1.36060806 41 7 C41.495 7.99 41.495 7.99 42 9 C40.39536551 8.68991116 38.79130769 8.37683713 37.1875 8.0625 C36.29417969 7.88847656 35.40085938 7.71445312 34.48046875 7.53515625 C32 7 32 7 29 6 C29 6.99 29 7.98 29 9 C27.02 9 25.04 9 23 9 C23.99 7.68 24.98 6.36 26 5 C25.01 5.495 25.01 5.495 24 6 C16.69021946 6.49035969 10.06129081 5.88301088 3 4 C3.33 3.34 3.66 2.68 4 2 C2.68 1.34 1.36 0.68 0 0 Z " fill="#1BC3E1" transform="translate(173,20)"/>
<path d="M0 0 C3.69474822 1.23158274 4.36413034 2.57531522 6.625 5.6875 C10.53241166 10.7318749 14.60906984 13.72034667 20 17 C21.68662519 18.30799504 23.36466012 19.62842462 25 21 C21.83273627 20.27647588 18.84788446 19.28176394 15.8125 18.125 C14.93207031 17.79757813 14.05164062 17.47015625 13.14453125 17.1328125 C11 16 11 16 10 13 C9.38125 12.731875 8.7625 12.46375 8.125 12.1875 C5.09106034 10.49206313 4.43994571 8.08148381 3 5 C2.88313557 9.02058602 2.81252612 13.04073082 2.75 17.0625 C2.69972656 18.7630957 2.69972656 18.7630957 2.6484375 20.49804688 C2.56829933 27.36989466 3.12617762 31.32311801 7 37 C6.67 37.66 6.34 38.32 6 39 C5.18357746 37.73168307 4.37200895 36.46024069 3.5625 35.1875 C3.11003906 34.47980469 2.65757813 33.77210938 2.19140625 33.04296875 C-0.07691491 29.15335574 -0.11764399 25.99932163 -0.09765625 21.58203125 C-0.09443359 20.32841797 -0.09121094 19.07480469 -0.08789062 17.78320312 C-0.07951172 16.47287109 -0.07113281 15.16253906 -0.0625 13.8125 C-0.05748317 12.47721519 -0.05292059 11.14192859 -0.04882812 9.80664062 C-0.03702695 6.53771527 -0.02056297 3.26888009 0 0 Z " fill="#105767" transform="translate(18,100)"/>
<path d="M0 0 C0.66 0.33 1.32 0.66 2 1 C1.37351562 1.65226562 0.74703125 2.30453125 0.1015625 2.9765625 C-0.71570312 3.85054687 -1.53296875 4.72453125 -2.375 5.625 C-3.59316406 6.91277344 -3.59316406 6.91277344 -4.8359375 8.2265625 C-8.85955509 13.38318432 -9.24599069 17.96249345 -9.125 24.375 C-9.10695313 25.62023437 -9.08890625 26.86546875 -9.0703125 28.1484375 C-9.04710937 29.08945313 -9.02390625 30.03046875 -9 31 C-7.68 31.66 -6.36 32.32 -5 33 C-5 32.34 -5 31.68 -5 31 C-4.34 31 -3.68 31 -3 31 C-1.79727181 33.40545638 -1.89928528 34.94996953 -1.9375 37.625 C-1.94652344 38.44226563 -1.95554687 39.25953125 -1.96484375 40.1015625 C-1.97644531 40.72804687 -1.98804688 41.35453125 -2 42 C-1.37609375 42.10183594 -0.7521875 42.20367187 -0.109375 42.30859375 C2 43 2 43 3.75 46.0625 C4.1625 47.031875 4.575 48.00125 5 49 C-2.12700439 46.09640562 -7.90155848 38.41028387 -11.15234375 31.578125 C-13.40442174 24.72848686 -12.61263328 17.60792104 -9.421875 11.21484375 C-6.75852484 7.06616369 -3.43068682 3.52228282 0 0 Z " fill="#18768B" transform="translate(29,41)"/>
<path d="M0 0 C0.99 0.33 1.98 0.66 3 1 C2.01 2.485 2.01 2.485 1 4 C0.34 4 -0.32 4 -1 4 C-1 4.66 -1 5.32 -1 6 C-4.3 6.66 -7.6 7.32 -11 8 C-11.33 8.99 -11.66 9.98 -12 11 C-12.99 11.33 -13.98 11.66 -15 12 C-15.66 11.34 -16.32 10.68 -17 10 C-19.21072977 9.75746187 -19.21072977 9.75746187 -21.625 9.875 C-22.85089844 9.90207031 -22.85089844 9.90207031 -24.1015625 9.9296875 C-25.04128906 9.96449219 -25.04128906 9.96449219 -26 10 C-26.33 9.01 -26.66 8.02 -27 7 C-26.31292969 6.96261719 -25.62585938 6.92523438 -24.91796875 6.88671875 C-24.01691406 6.82097656 -23.11585938 6.75523437 -22.1875 6.6875 C-20.84751953 6.60048828 -20.84751953 6.60048828 -19.48046875 6.51171875 C-16.63572985 5.92485136 -15.93011924 5.0628495 -14 3 C-13.01 3 -12.02 3 -11 3 C-11 2.34 -11 1.68 -11 1 C-5.25 1.875 -5.25 1.875 -3 3 C-2.67 2.34 -2.34 1.68 -2 1 C-1.34 0.67 -0.68 0.34 0 0 Z " fill="#0DC4DF" transform="translate(241,143)"/>
<path d="M0 0 C6.27 2.97 12.54 5.94 19 9 C19 9.66 19 10.32 19 11 C20.7325 11.1546875 20.7325 11.1546875 22.5 11.3125 C27.01171519 11.86035113 30.80605749 13.2774879 35 15 C32.35261084 16.4606285 31.10551666 17 28 17 C28 16.34 28 15.68 28 15 C24.99773142 13.49886571 22.27043971 14.10320386 18.9375 14.25 C12.13412119 14.42609704 7.44445127 13.13129094 2 9 C2 8.34 2 7.68 2 7 C4.31 7.33 6.62 7.66 9 8 C9.33 8.99 9.66 9.98 10 11 C10.99 10.01 11.98 9.02 13 8 C12.34 7.9175 11.68 7.835 11 7.75 C7.00960837 6.75240209 3.61450357 4.92833317 0 3 C0 2.01 0 1.02 0 0 Z " fill="#2EC1DB" transform="translate(36,175)"/>
<path d="M0 0 C4.62 0.66 9.24 1.32 14 2 C14 2.66 14 3.32 14 4 C14.73605469 3.98839844 15.47210938 3.97679687 16.23046875 3.96484375 C17.20628906 3.95582031 18.18210937 3.94679687 19.1875 3.9375 C20.15042969 3.92589844 21.11335938 3.91429687 22.10546875 3.90234375 C25 4 25 4 27.29492188 4.47265625 C30.26302715 5.05127605 33.16021664 5.31233128 36.17578125 5.53515625 C37.33271484 5.62216797 38.48964844 5.70917969 39.68164062 5.79882812 C41.47891602 5.9293457 41.47891602 5.9293457 43.3125 6.0625 C44.53001953 6.15337891 45.74753906 6.24425781 47.00195312 6.33789062 C50.00110842 6.5613571 53.0004461 6.78196027 56 7 C56 7.33 56 7.66 56 8 C46.43 8 36.86 8 27 8 C27 7.34 27 6.68 27 6 C16.605 6.495 16.605 6.495 6 7 C6 6.34 6 5.68 6 5 C6.99 4.67 7.98 4.34 9 4 C4.545 3.01 4.545 3.01 0 2 C0 1.34 0 0.68 0 0 Z " fill="#2DC0DD" transform="translate(74,191)"/>
<path d="M0 0 C1.32 0.33 2.64 0.66 4 1 C4 2.98 4 4.96 4 7 C7.07322544 7.91058531 9.80097361 8.08886184 13 8 C13.33 8.66 13.66 9.32 14 10 C12.68 9.67 11.36 9.34 10 9 C10 9.66 10 10.32 10 11 C12.475 11.495 12.475 11.495 15 12 C15.33 12.99 15.66 13.98 16 15 C16.66 15.33 17.32 15.66 18 16 C8.37692003 14.36986077 -1.09410285 9.65180488 -9 4 C-9.33 3.34 -9.66 2.68 -10 2 C-4.25 3.875 -4.25 3.875 -2 5 C-2 4.34 -2 3.68 -2 3 C-1.34 3 -0.68 3 0 3 C0 2.01 0 1.02 0 0 Z " fill="#15C2DB" transform="translate(44,88)"/>
<path d="M0 0 C0.41507813 0.3403125 0.83015625 0.680625 1.2578125 1.03125 C19.00602123 14.99218407 40.99169677 22.77733569 63 27 C63 27.33 63 27.66 63 28 C53.06977474 27.2826073 44.10687675 26.10702285 35 22 C32.22111387 21.30859478 32.22111387 21.30859478 30 21 C30 20.34 30 19.68 30 19 C28.741875 18.62875 27.48375 18.2575 26.1875 17.875 C16.41957098 14.58329978 7.43646108 9.16223149 0 2 C0 1.34 0 0.68 0 0 Z " fill="#0D5569" transform="translate(25,165)"/>
<path d="M0 0 C2.15825637 0.96749423 3.7900609 1.78093311 5.4375 3.5 C7.42295372 5.40603557 9.43925147 6.0397193 12 7 C12.99 7.66 13.98 8.32 15 9 C15 8.01 15 7.02 15 6 C12.525 5.01 12.525 5.01 10 4 C10 3.01 10 2.02 10 1 C13.40312738 2.05875074 16.01353231 3.00902154 19 5 C19 5.66 19 6.32 19 7 C19.99 7.33 20.98 7.66 22 8 C21.01 8.495 21.01 8.495 20 9 C20 9.99 20 10.98 20 12 C20.99 12 21.98 12 23 12 C23 12.66 23 13.32 23 14 C23.99 14.33 24.98 14.66 26 15 C24 16 24 16 21.75 15.50390625 C12.89227696 12.47164595 5.42054125 7.78334128 0 0 Z " fill="#21C3DF" transform="translate(26,197)"/>
<path d="M0 0 C0 0.33 0 0.66 0 1 C-7.92 2.485 -7.92 2.485 -16 4 C-16 4.99 -16 5.98 -16 7 C-16.845625 7.12117188 -17.69125 7.24234375 -18.5625 7.3671875 C-24.82361977 8.29212565 -30.88296715 9.39025451 -37 11 C-38.99601306 11.3564309 -40.994845 11.69922675 -43 12 C-35.72140542 5.91981808 -25.19944556 3.89219625 -16.125 1.6875 C-15.43639893 1.51613525 -14.74779785 1.34477051 -14.03833008 1.16821289 C-9.26524875 0.06576138 -4.89731248 -0.14790541 0 0 Z " fill="#1C7689" transform="translate(91,19)"/>
<path d="M0 0 C1.32 1.32 2.64 2.64 4 4 C3.01 4.495 3.01 4.495 2 5 C1.91884007 8.06303578 1.85942591 11.12390815 1.8125 14.1875 C1.78736328 15.05181641 1.76222656 15.91613281 1.73632812 16.80664062 C1.67887001 21.80549629 1.92602798 24.84489346 5 29 C5 29.66 5 30.32 5 31 C7.96687001 32.64826111 10.65626525 33.44271087 14 34 C14.33 35.32 14.66 36.64 15 38 C14.01 38 13.02 38 12 38 C11.67 38.99 11.34 39.98 11 41 C5.30890839 37.48491401 2.386198 32.08374252 0 26 C-0.66788134 21.39727993 -0.57811698 16.95033779 -0.375 12.3125 C-0.34792969 11.12205078 -0.32085938 9.93160156 -0.29296875 8.70507812 C-0.22300102 5.80141731 -0.12489503 2.90172795 0 0 Z " fill="#33C2DC" transform="translate(20,160)"/>
<path d="M0 0 C0 0.99 0 1.98 0 3 C1.65 3 3.3 3 5 3 C5 3.66 5 4.32 5 5 C4.15115234 5.16435547 4.15115234 5.16435547 3.28515625 5.33203125 C2.55167969 5.49058594 1.81820312 5.64914063 1.0625 5.8125 C0.33160156 5.96332031 -0.39929688 6.11414063 -1.15234375 6.26953125 C-2.06693359 6.63111328 -2.06693359 6.63111328 -3 7 C-3.33 7.99 -3.66 8.98 -4 10 C-5.98 10.33 -7.96 10.66 -10 11 C-10 9.68 -10 8.36 -10 7 C-7.03 6.34 -4.06 5.68 -1 5 C-1.33 4.34 -1.66 3.68 -2 3 C-3.8871875 2.938125 -3.8871875 2.938125 -5.8125 2.875 C-6.52019531 2.85179687 -7.22789063 2.82859375 -7.95703125 2.8046875 C-10.31359719 2.86745538 -10.31359719 2.86745538 -13 5 C-13.99 5 -14.98 5 -16 5 C-16 3.68 -16 2.36 -16 1 C-10.28728907 -1.0662997 -5.96345767 -1.0006709 0 0 Z " fill="#1EC2E2" transform="translate(64,135)"/>
<path d="M0 0 C4.20393865 0.76836694 5.52187506 2.54832597 8 6 C7.67 6.66 7.34 7.32 7 8 C6.01 6.68 5.02 5.36 4 4 C3.8533068 7.97877103 3.76546488 11.9568359 3.6875 15.9375 C3.6246582 17.61295898 3.6246582 17.61295898 3.56054688 19.32226562 C3.46053 26.14341626 4.13803737 30.60307855 8.01489258 36.29516602 C8.33997803 36.85776123 8.66506348 37.42035645 9 38 C8.67 38.66 8.34 39.32 8 40 C3.17438784 33.65051032 0.81871676 28.65508664 0.5859375 20.5078125 C0.54726563 19.30898437 0.50859375 18.11015625 0.46875 16.875 C0.4378125 15.6375 0.406875 14.4 0.375 13.125 C0.33632813 11.86429688 0.29765625 10.60359375 0.2578125 9.3046875 C0.16383011 6.20326863 0.07816589 3.10185114 0 0 Z " fill="#166778" transform="translate(17,157)"/>
<path d="M0 0 C4.62613992 1.15653498 5.81352941 2.57454412 9 6 C10.1446875 7.1446875 10.1446875 7.1446875 11.3125 8.3125 C11.869375 8.869375 12.42625 9.42625 13 10 C11.948125 9.87625 10.89625 9.7525 9.8125 9.625 C6.14417132 9.61536816 6.14417132 9.61536816 4.45703125 11.3359375 C3.24769697 12.84671874 2.11857174 14.4208399 1 16 C0.67 16 0.34 16 0 16 C0 10.72 0 5.44 0 0 Z " fill="#29C0DB" transform="translate(21,164)"/>
<path d="M0 0 C6.40549623 1.63799592 12.72121519 3.4960355 19 5.5625 C19.64654541 5.77221436 20.29309082 5.98192871 20.95922852 6.19799805 C23.98410519 7.20735289 26.32481343 8.21654229 29 10 C30.54766142 10.5827119 32.11192222 11.12264187 33.6875 11.625 C34.49574219 11.88539063 35.30398437 12.14578125 36.13671875 12.4140625 C37.05904297 12.70410156 37.05904297 12.70410156 38 13 C33.99966871 14.6122242 30.70396045 13.28926805 26.8125 12 C26.12212646 11.77723389 25.43175293 11.55446777 24.72045898 11.32495117 C19.25721106 9.51655045 13.89531732 7.47314675 8.5625 5.3125 C7.45322144 4.86680664 7.45322144 4.86680664 6.3215332 4.41210938 C1.12332477 2.24664954 1.12332477 2.24664954 0 0 Z " fill="#1F768D" transform="translate(45,211)"/>
<path d="M0 0 C11.88 0 23.76 0 36 0 C36 0.33 36 0.66 36 1 C35.34773438 1.03738281 34.69546875 1.07476562 34.0234375 1.11328125 C28.64143271 1.51812232 24.75851639 2.26385307 20 5 C19.34 5 18.68 5 18 5 C18 4.34 18 3.68 18 3 C16.329375 3.061875 16.329375 3.061875 14.625 3.125 C9.60098664 3.14300722 4.8781803 2.11958236 0 1 C0 0.67 0 0.34 0 0 Z " fill="#1CC7E0" transform="translate(118,199)"/>
<path d="M0 0 C5.68528321 0.53813928 10.55855545 1.62855279 15.875 3.6875 C16.56464844 3.94934082 17.25429687 4.21118164 17.96484375 4.48095703 C23.68925535 6.72658485 28.90506424 9.54622143 34 13 C31.45297384 14.27351308 30.5717055 13.80191925 27.875 13.0625 C27.15054688 12.86785156 26.42609375 12.67320313 25.6796875 12.47265625 C25.12539062 12.31667969 24.57109375 12.16070312 24 12 C24 11.34 24 10.68 24 10 C22.948125 9.8453125 22.948125 9.8453125 21.875 9.6875 C18.58179047 8.89999337 16.00223054 7.56115988 13 6 C8.72425324 4.09118448 4.46360996 2.41529096 0 1 C0 0.67 0 0.34 0 0 Z " fill="#1A7185" transform="translate(202,23)"/>
<path d="M0 0 C0.33 0 0.66 0 1 0 C1.05423638 1.91635217 1.09289963 3.83314925 1.125 5.75 C1.14820313 6.81734375 1.17140625 7.8846875 1.1953125 8.984375 C1.00263471 11.95932013 0.65837835 13.55488243 -1 16 C-3.91489643 17.49481868 -5.70776216 18 -9 18 C-9 16.35 -9 14.7 -9 13 C-8.01 13.33 -7.02 13.66 -6 14 C-5.34 10.04 -4.68 6.08 -4 2 C-3.34 2 -2.68 2 -2 2 C-1.67 4.64 -1.34 7.28 -1 10 C-0.67 6.7 -0.34 3.4 0 0 Z " fill="#1EC2DD" transform="translate(252,176)"/>
<path d="M0 0 C2.0625 0.4375 2.0625 0.4375 4 1 C3.36843005 6.05255964 1.86540627 10.29593201 0 15 C-2.31 15.33 -4.62 15.66 -7 16 C-7 11.71 -7 7.42 -7 3 C-6.34 3 -5.68 3 -5 3 C-5 6.63 -5 10.26 -5 14 C-3.68 14 -2.36 14 -1 14 C-1.01160156 13.07316406 -1.02320313 12.14632812 -1.03515625 11.19140625 C-1.04417969 9.99386719 -1.05320313 8.79632813 -1.0625 7.5625 C-1.07410156 6.36753906 -1.08570313 5.17257813 -1.09765625 3.94140625 C-1 1 -1 1 0 0 Z " fill="#21C2E1" transform="translate(249,66)"/>
<path d="M0 0 C-0.66 0 -1.32 0 -2 0 C-2 0.66 -2 1.32 -2 2 C-2.66 2 -3.32 2 -4 2 C-4.33 3.32 -4.66 4.64 -5 6 C-4.195625 6.268125 -3.39125 6.53625 -2.5625 6.8125 C-1.716875 7.204375 -0.87125 7.59625 0 8 C0.33 8.99 0.66 9.98 1 11 C-3.62980769 10.35697115 -3.62980769 10.35697115 -5.75 8.3125 C-8.60027561 6.64983922 -9.59393906 7.10238629 -12.75 7.8125 C-14.17145188 8.19078961 -15.5899511 8.58120342 -17 9 C-12.90717886 4.37907291 -6.42502595 -2.14167532 0 0 Z " fill="#1F94AF" transform="translate(48,32)"/>
<path d="M0 0 C-7.04617158 4.53636267 -14.20185036 7.95574356 -22 11 C-22.88042969 11.39703125 -23.76085937 11.7940625 -24.66796875 12.203125 C-27 13 -27 13 -30 12 C-28.68 11.67 -27.36 11.34 -26 11 C-26 10.34 -26 9.68 -26 9 C-24.75108386 8.51801537 -23.50081192 8.03954323 -22.25 7.5625 C-21.55390625 7.29566406 -20.8578125 7.02882812 -20.140625 6.75390625 C-18 6 -18 6 -15.796875 5.52734375 C-15.20390625 5.35332031 -14.6109375 5.17929688 -14 5 C-13.67 4.34 -13.34 3.68 -13 3 C-11 2.66666667 -9 2.33333333 -7 2 C-6.67 1.34 -6.34 0.68 -6 0 C-2.49056604 -1.24528302 -2.49056604 -1.24528302 0 0 Z " fill="#187A8B" transform="translate(236,208)"/>
<path d="M0 0 C2.97 0.495 2.97 0.495 6 1 C-3.89150997 6.54596797 -16.88687681 7.2315234 -28 7 C-28 6.34 -28 5.68 -28 5 C-27.07058594 4.93941406 -26.14117187 4.87882813 -25.18359375 4.81640625 C-16.05853115 4.20428448 -16.05853115 4.20428448 -7 3 C-7 2.34 -7 1.68 -7 1 C-4.69 1.33 -2.38 1.66 0 2 C0 1.34 0 0.68 0 0 Z " fill="#1C778B" transform="translate(196,164)"/>
<path d="M0 0 C0.66 0.33 1.32 0.66 2 1 C1.01 2.98 0.02 4.96 -1 7 C-1.33 6.34 -1.66 5.68 -2 5 C-3.32 5.33 -4.64 5.66 -6 6 C-6.33 7.32 -6.66 8.64 -7 10 C-11.99367864 10.7282448 -16.99109914 11.38487182 -22 12 C-20.02730115 10.02730115 -18.68798539 9.26588923 -16.19140625 8.125 C-15.07088867 7.60679688 -15.07088867 7.60679688 -13.92773438 7.078125 C-12.75694336 6.54445313 -12.75694336 6.54445313 -11.5625 6 C-10.0211093 5.29390235 -8.48070386 4.58564902 -6.94140625 3.875 C-6.25763916 3.56304687 -5.57387207 3.25109375 -4.86938477 2.9296875 C-2.75146725 1.92542851 -2.75146725 1.92542851 0 0 Z " fill="#157587" transform="translate(236,117)"/>
<path d="M0 0 C0.33 0.66 0.66 1.32 1 2 C-3.00771862 8.78954684 -7.60782961 14.30814694 -14 19 C-14.66 19 -15.32 19 -16 19 C-16.33 18.01 -16.66 17.02 -17 16 C-15.35 15.67 -13.7 15.34 -12 15 C-12.33 14.01 -12.66 13.02 -13 12 C-11.35 12 -9.7 12 -8 12 C-8.33 10.35 -8.66 8.7 -9 7 C-6 5 -6 5 -2 5 C-1.34 3.35 -0.68 1.7 0 0 Z " fill="#1C93A8" transform="translate(253,187)"/>
<path d="M0 0 C2.31 0.66 4.62 1.32 7 2 C7 3.65 7 5.3 7 7 C5.68 6.34 4.36 5.68 3 5 C3 4.34 3 3.68 3 3 C2.01 3.495 2.01 3.495 1 4 C0.67 4.99 0.34 5.98 0 7 C-2.06640625 7.73046875 -2.06640625 7.73046875 -4.5625 8.1875 C-5.38878906 8.34605469 -6.21507812 8.50460938 -7.06640625 8.66796875 C-7.70449219 8.77753906 -8.34257812 8.88710937 -9 9 C-9 8.01 -9 7.02 -9 6 C-8.34 6 -7.68 6 -7 6 C-7 5.34 -7 4.68 -7 4 C-5.824375 3.566875 -5.824375 3.566875 -4.625 3.125 C-1.90328368 2.15087746 -1.90328368 2.15087746 0 0 Z " fill="#16C4E1" transform="translate(237,119)"/>
<path d="M0 0 C5.32799788 -0.20118742 9.85732633 0.45786853 15 1.8125 C15.67289063 1.97814453 16.34578125 2.14378906 17.0390625 2.31445312 C21.58302305 3.47675964 25.73023958 5.05970523 30 7 C25.33367936 8.55544021 21.53441459 6.51147153 17 5 C17 5.99 17 6.98 17 8 C15.02 8 13.04 8 11 8 C11.99 6.35 12.98 4.7 14 3 C9.38 2.34 4.76 1.68 0 1 C0 0.67 0 0.34 0 0 Z " fill="#2FBDD4" transform="translate(185,21)"/>
<path d="M0 0 C2.09350689 3.4019487 2.17942163 6.05272412 2 10 C0.33333333 10 -1.33333333 10 -3 10 C-3 8.68 -3 7.36 -3 6 C-2.34 6 -1.68 6 -1 6 C-1 5.34 -1 4.68 -1 4 C-2.98 4.33 -4.96 4.66 -7 5 C-7 4.34 -7 3.68 -7 3 C-7.99 3 -8.98 3 -10 3 C-10 2.34 -10 1.68 -10 1 C-6.59437148 0.22157062 -3.49234244 -0.09978121 0 0 Z " fill="#1CC3E1" transform="translate(241,178)"/>
<path d="M0 0 C1.65 0 3.3 0 5 0 C5.33 0.99 5.66 1.98 6 3 C5.01 3.33 4.02 3.66 3 4 C2.32041397 6.39719432 2.32041397 6.39719432 2 9 C2.66 9.66 3.32 10.32 4 11 C-0.75 10.25 -0.75 10.25 -3 8 C-3.125 4.875 -3.125 4.875 -3 2 C-2.01 2 -1.02 2 0 2 C0 1.34 0 0.68 0 0 Z " fill="#13C4E2" transform="translate(35,80)"/>
<path d="M0 0 C0.56380371 0.05986084 1.12760742 0.11972168 1.70849609 0.18139648 C9.00503348 0.93558131 16.31060381 1.51208557 23.625 2.0625 C24.81996094 2.15337891 26.01492187 2.24425781 27.24609375 2.33789062 C30.16398409 2.55965029 33.08195165 2.78033101 36 3 C36 3.33 36 3.66 36 4 C26.43 4 16.86 4 7 4 C7 3.34 7 2.68 7 2 C4.69 1.67 2.38 1.34 0 1 C0 0.67 0 0.34 0 0 Z " fill="#31B7CC" transform="translate(94,195)"/>
<path d="M0 0 C4.75 0.875 4.75 0.875 7 2 C6.938125 3.2375 6.87625 4.475 6.8125 5.75 C6.79637174 8.78211302 6.89348977 9.82248296 8.5 12.5 C8.995 12.995 9.49 13.49 10 14 C6.55729549 12.46990911 3.81074178 10.5068778 1 8 C0.03601353 5.1080406 0 3.0005625 0 0 Z " fill="#07A6BD" transform="translate(25,134)"/>
<path d="M0 0 C11.04528196 -0.13379211 21.98080785 0.23629361 33 1 C33 1.33 33 1.66 33 2 C21.90881933 4.06347547 11.02016929 3.02006377 0 1 C0 0.67 0 0.34 0 0 Z " fill="#218CA0" transform="translate(86,168)"/>
<path d="M0 0 C4.62 0 9.24 0 14 0 C14.33 0.66 14.66 1.32 15 2 C13.68 1.67 12.36 1.34 11 1 C11 1.66 11 2.32 11 3 C12.65 3.33 14.3 3.66 16 4 C16.33 4.99 16.66 5.98 17 7 C17.66 7.33 18.32 7.66 19 8 C15.01011188 7.34362284 11.53848439 6.12232204 7.8125 4.5625 C6.76707031 4.13066406 5.72164062 3.69882813 4.64453125 3.25390625 C2 2 2 2 0 0 Z " fill="#1F8A9D" transform="translate(43,96)"/>
<path d="M0 0 C1.6065676 0.25620684 3.2102483 0.53055871 4.8125 0.8125 C6.15248047 1.03873047 6.15248047 1.03873047 7.51953125 1.26953125 C10.20379983 2.06001664 11.34598804 2.7648487 13 5 C12.6875 7.1875 12.6875 7.1875 12 9 C11.01 9 10.02 9 9 9 C8.67 8.01 8.34 7.02 8 6 C6.35 5.67 4.7 5.34 3 5 C2.67 5.99 2.34 6.98 2 8 C1.34 8 0.68 8 0 8 C0.33 6.68 0.66 5.36 1 4 C1.66 4 2.32 4 3 4 C3 3.34 3 2.68 3 2 C2.01 1.67 1.02 1.34 0 1 C0 0.67 0 0.34 0 0 Z " fill="#14C3E1" transform="translate(224,80)"/>
<path d="M0 0 C3.29378088 0.24825926 6.58421793 0.52741861 9.875 0.8125 C11.28072266 0.91788086 11.28072266 0.91788086 12.71484375 1.02539062 C13.61074219 1.10595703 14.50664063 1.18652344 15.4296875 1.26953125 C16.25710449 1.33760986 17.08452148 1.40568848 17.93701172 1.47583008 C20 2 20 2 22 5 C24.05003955 6.19232613 24.05003955 6.19232613 26 7 C16.94269693 6.50596529 8.60629066 3.67773223 0 1 C0 0.67 0 0.34 0 0 Z " fill="#196E81" transform="translate(60,161)"/>
<path d="M0 0 C3.14760308 1.77052673 6.01734003 3.74143835 8.875 5.9375 C12.43471562 8.6512756 16.06647965 10.86934314 20 13 C16.1379321 14.28735597 15.01093532 13.41926846 11.375 11.75 C10.39273438 11.31171875 9.41046875 10.8734375 8.3984375 10.421875 C6 9 6 9 5 6 C4.34 5.690625 3.68 5.38125 3 5.0625 C1 4 1 4 0.25 1.875 C0.1675 1.25625 0.085 0.6375 0 0 Z " fill="#339EB5" transform="translate(23,107)"/>
<path d="M0 0 C2.97 0 5.94 0 9 0 C7.515 1.98 7.515 1.98 6 4 C7.32 4.33 8.64 4.66 10 5 C8.68 5.33 7.36 5.66 6 6 C6 6.66 6 7.32 6 8 C4.125 7.6875 4.125 7.6875 2 7 C1.34 6.01 0.68 5.02 0 4 C-2.05925139 3.27617533 -2.05925139 3.27617533 -4 3 C-4 2.34 -4 1.68 -4 1 C-2.68 1.33 -1.36 1.66 0 2 C0 1.34 0 0.68 0 0 Z " fill="#06C4E1" transform="translate(58,96)"/>
<path d="M0 0 C1.74991334 -0.02715383 3.49994945 -0.04646551 5.25 -0.0625 C6.71179688 -0.07990234 6.71179688 -0.07990234 8.203125 -0.09765625 C10.65758678 -0.01195577 12.66168914 0.29293934 15 1 C15 1.66 15 2.32 15 3 C10.126739 4.5912689 6.19209404 5.21192221 1 5 C1.33 4.34 1.66 3.68 2 3 C1.34 2.67 0.68 2.34 0 2 C0 1.34 0 0.68 0 0 Z " fill="#24C2DD" transform="translate(174,164)"/>
<path d="M0 0 C1.35602585 0.26136553 2.70974092 0.53472143 4.0625 0.8125 C5.19365234 1.03873047 5.19365234 1.03873047 6.34765625 1.26953125 C9 2 9 2 12.28125 3.46875 C16.23408111 5.21848662 20.19185084 5.97665481 24.4375 6.6875 C25.16904297 6.81705078 25.90058594 6.94660156 26.65429688 7.08007812 C28.434877 7.39429815 30.21726583 7.69824068 32 8 C32 8.33 32 8.66 32 9 C21.01210008 9.6339173 9.64480207 6.22426779 0 1 C0 0.67 0 0.34 0 0 Z " fill="#39B8CF" transform="translate(52,127)"/>
<path d="M0 0 C0.66 0.33 1.32 0.66 2 1 C2 1.66 2 2.32 2 3 C-1.65323501 4.13878897 -5.12687438 4.16716582 -8.9375 4.1875 C-10.74541016 4.20876953 -10.74541016 4.20876953 -12.58984375 4.23046875 C-15.86019062 4.00944874 -18.06816515 3.40750326 -21 2 C-21 1.67 -21 1.34 -21 1 C-20.15236084 1.00785522 -20.15236084 1.00785522 -19.28759766 1.01586914 C-16.7334097 1.03662422 -14.17923947 1.0496554 -11.625 1.0625 C-10.73554688 1.07087891 -9.84609375 1.07925781 -8.9296875 1.08789062 C-8.07890625 1.09111328 -7.228125 1.09433594 -6.3515625 1.09765625 C-5.17327881 1.10551147 -5.17327881 1.10551147 -3.97119141 1.11352539 C-1.92227332 1.12573953 -1.92227332 1.12573953 0 0 Z " fill="#19C3E3" transform="translate(222,132)"/>
<path d="M0 0 C0.33 0.66 0.66 1.32 1 2 C-1.77403059 8.45757942 -6.95166086 13.28988706 -12 18 C-12.66 17.67 -13.32 17.34 -14 17 C-13.67 15.02 -13.34 13.04 -13 11 C-11.35 11.33 -9.7 11.66 -8 12 C-8.33 10.68 -8.66 9.36 -9 8 C-8.2575 7.979375 -7.515 7.95875 -6.75 7.9375 C-3.57208751 6.85412074 -3.27248768 6.25525588 -1.6875 3.4375 C-1.130625 2.303125 -0.57375 1.16875 0 0 Z " fill="#197A90" transform="translate(253,73)"/>
<path d="M0 0 C3.63 0.33 7.26 0.66 11 1 C10.67 1.66 10.34 2.32 10 3 C8.35 3 6.7 3 5 3 C7.97 3.495 7.97 3.495 11 4 C11 4.33 11 4.66 11 5 C4.2718373 5.22262303 -1.53991163 4.95021536 -8 3 C-8 2.67 -8 2.34 -8 2 C-5.36 2 -2.72 2 0 2 C0 1.34 0 0.68 0 0 Z " fill="#1EC2DB" transform="translate(77,218)"/>
<path d="M0 0 C0 0.66 0 1.32 0 2 C-5.94 2.495 -5.94 2.495 -12 3 C-12.33 3.99 -12.66 4.98 -13 6 C-15.64458379 7.32229189 -17.67761301 7.09677194 -20.625 7.0625 C-21.62789062 7.05347656 -22.63078125 7.04445312 -23.6640625 7.03515625 C-24.43492187 7.02355469 -25.20578125 7.01195312 -26 7 C-26 6.67 -26 6.34 -26 6 C-24.88625 5.731875 -23.7725 5.46375 -22.625 5.1875 C-18.47256537 4.15308568 -14.38678562 2.94052488 -10.296875 1.68359375 C-6.61451579 0.58765351 -3.90649589 0 0 0 Z " fill="#227E93" transform="translate(204,189)"/>
<path d="M0 0 C0.33 0 0.66 0 1 0 C1 7.92 1 15.84 1 24 C1.66 24 2.32 24 3 24 C3.433125 25.3303125 3.433125 25.3303125 3.875 26.6875 C4.83148748 29.50382424 5.86798946 32.25083156 7 35 C6.34 35 5.68 35 5 35 C-0.34141417 27.64004915 -0.63243965 21.3318223 -0.3125 12.4375 C-0.28994141 11.23802734 -0.26738281 10.03855469 -0.24414062 8.80273438 C-0.18566309 5.86716197 -0.10375749 2.93426192 0 0 Z " fill="#48CFE6" transform="translate(20,104)"/>
<path d="M0 0 C0.33 0 0.66 0 1 0 C1 5.94 1 11.88 1 18 C1.66 18 2.32 18 3 18 C2.67 17.34 2.34 16.68 2 16 C1.960008 14.00039988 1.95653201 11.99952758 2 10 C2.99 10 3.98 10 5 10 C5.125 17.75 5.125 17.75 4 20 C1.525 19.01 1.525 19.01 -1 18 C-1.02707139 15.75006641 -1.04642829 13.50003905 -1.0625 11.25 C-1.07410156 9.99703125 -1.08570312 8.7440625 -1.09765625 7.453125 C-1.02021027 4.71463499 -0.82780815 2.58119707 0 0 Z " fill="#29C2DB" transform="translate(20,54)"/>
<path d="M0 0 C2.15825637 0.96749423 3.7900609 1.78093311 5.4375 3.5 C6.953808 5.14780505 6.953808 5.14780505 9.25 5.875 C12.86379588 7.35337104 16.08931824 9.38290285 19 12 C19 12.66 19 13.32 19 14 C14.5032603 12.7264708 11.41762142 11.08734784 7.8125 8.125 C6.97332031 7.44695312 6.13414063 6.76890625 5.26953125 6.0703125 C3.18915333 4.17254951 1.59173823 2.31242752 0 0 Z " fill="#1D6E7F" transform="translate(26,197)"/>
<path d="M0 0 C4.51250751 1.25930442 7.62680284 2.71797033 11 6 C12.8125 9.25 12.8125 9.25 14 12 C10.41726669 10.34643078 7.19026533 8.32019297 4 6 C4 5.34 4 4.68 4 4 C3.34 4 2.68 4 2 4 C2 3.34 2 2.68 2 2 C1.34 2 0.68 2 0 2 C0 1.34 0 0.68 0 0 Z " fill="#2798AF" transform="translate(233,36)"/>
<path d="M0 0 C10.99291053 0.61901826 10.99291053 0.61901826 15 4 C15.70252418 5.31479352 16.37495107 6.64665745 17 8 C11.00067626 6.1668733 5.55079437 3.92678249 0 1 C0 0.67 0 0.34 0 0 Z " fill="#207F92" transform="translate(43,153)"/>
<path d="M0 0 C-1.44253657 3.36591866 -3.33264727 5.51047079 -6 8 C-5.01 8.66 -4.02 9.32 -3 10 C-5.60582371 10.93065133 -6.64198224 11.14917407 -9.25 10.0625 C-9.8275 9.711875 -10.405 9.36125 -11 9 C-10.32353508 6.2941403 -9.64282657 4.48483064 -7.37890625 2.77734375 C-2.59072581 0 -2.59072581 0 0 0 Z " fill="#1DC3DF" transform="translate(233,200)"/>
<path d="M0 0 C0.99 0.33 1.98 0.66 3 1 C2.01 2.485 2.01 2.485 1 4 C0.34 4 -0.32 4 -1 4 C-1 4.66 -1 5.32 -1 6 C-2.65 6 -4.3 6 -6 6 C-6 5.34 -6 4.68 -6 4 C-7.65 3.67 -9.3 3.34 -11 3 C-11 2.34 -11 1.68 -11 1 C-5.25 1.875 -5.25 1.875 -3 3 C-2.67 2.34 -2.34 1.68 -2 1 C-1.34 0.67 -0.68 0.34 0 0 Z " fill="#23C1DD" transform="translate(241,143)"/>
<path d="M0 0 C0 1.33333333 0 2.66666667 0 4 C-0.89203125 4.13277344 -1.7840625 4.26554687 -2.703125 4.40234375 C-3.87359375 4.57894531 -5.0440625 4.75554688 -6.25 4.9375 C-7.99023438 5.19853516 -7.99023438 5.19853516 -9.765625 5.46484375 C-12.23106961 5.8727736 -14.59424562 6.33901303 -17 7 C-16.34 6.67 -15.68 6.34 -15 6 C-15 5.34 -15 4.68 -15 4 C-13.44219668 3.32243118 -11.87849904 2.65840543 -10.3125 2 C-9.44238281 1.62875 -8.57226562 1.2575 -7.67578125 0.875 C-4.9427998 -0.01870488 -2.85299066 -0.16449676 0 0 Z " fill="#27C1DB" transform="translate(61,28)"/>
<path d="M0 0 C-0.99 1.485 -0.99 1.485 -2 3 C-4.390625 3.4765625 -4.390625 3.4765625 -7.25 3.625 C-11.22967789 3.88124733 -15.07480096 4.25739478 -19 5 C-15.66818403 2.77878936 -12.78041679 1.91331484 -8.9375 0.8125 C-7.68839844 0.44769531 -6.43929687 0.08289063 -5.15234375 -0.29296875 C-2 -1 -2 -1 0 0 Z " fill="#1D8395" transform="translate(223,184)"/>
<path d="M0 0 C0 0.66 0 1.32 0 2 C-4.92984325 4.03993514 -8.57960425 5.40652968 -14 5 C-14 4.34 -14 3.68 -14 3 C-9.4871514 0.3964335 -5.15155902 0 0 0 Z " fill="#2388A0" transform="translate(214,160)"/>
<path d="M0 0 C0.33 0.66 0.66 1.32 1 2 C-1.30026386 3.15013193 -3.01247936 3.29232399 -5.5703125 3.53515625 C-6.46621094 3.62216797 -7.36210937 3.70917969 -8.28515625 3.79882812 C-9.22230469 3.88583984 -10.15945312 3.97285156 -11.125 4.0625 C-12.06988281 4.15337891 -13.01476562 4.24425781 -13.98828125 4.33789062 C-16.32520611 4.56214099 -18.66242116 4.78269057 -21 5 C-17.62779599 2.751864 -14.36195252 1.83131986 -10.5 0.8125 C-9.82324219 0.62236328 -9.14648438 0.43222656 -8.44921875 0.23632812 C-5.10039119 -0.65867411 -3.35701595 -1.11900532 0 0 Z " fill="#126979" transform="translate(214,130)"/>
<path d="M0 0 C6.45892714 -0.40368295 11.06108578 0.4084738 17 3 C17 3.33 17 3.66 17 4 C14.03 4 11.06 4 8 4 C8 3.34 8 2.68 8 2 C5.03 2 2.06 2 -1 2 C-0.67 1.34 -0.34 0.68 0 0 Z " fill="#1AC3DF" transform="translate(104,202)"/>
<path d="M0 0 C2.875 0.1875 2.875 0.1875 6 1 C7.1875 3.5 7.1875 3.5 8 6 C8.99 6.33 9.98 6.66 11 7 C11 7.66 11 8.32 11 9 C10.01 9 9.02 9 8 9 C8 8.34 8 7.68 8 7 C6.35 6.67 4.7 6.34 3 6 C3 4.68 3 3.36 3 2 C2.01 1.67 1.02 1.34 0 1 C0 0.67 0 0.34 0 0 Z " fill="#1EC3DF" transform="translate(37,190)"/>
<path d="M0 0 C0 1.98 0 3.96 0 6 C-1.32 6 -2.64 6 -4 6 C-4 6.99 -4 7.98 -4 9 C-4.66 9 -5.32 9 -6 9 C-6 9.66 -6 10.32 -6 11 C-6.99 10.67 -7.98 10.34 -9 10 C-8.34 8.68 -7.68 7.36 -7 6 C-6.34 6 -5.68 6 -5 6 C-4.8453125 5.071875 -4.8453125 5.071875 -4.6875 4.125 C-3.92730223 1.77529781 -2.85021248 0 0 0 Z " fill="#1FC3E2" transform="translate(48,82)"/>
<path d="M0 0 C1.32 0.33 2.64 0.66 4 1 C3.979375 2.2375 3.95875 3.475 3.9375 4.75 C3.92480296 7.1497398 3.99596713 8.98507837 4.625 11.3125 C4.74875 11.869375 4.8725 12.42625 5 13 C4.01 14.485 4.01 14.485 3 16 C2.34 15.34 1.68 14.68 1 14 C1.66 14 2.32 14 3 14 C2.690625 13.360625 2.38125 12.72125 2.0625 12.0625 C0.68064597 8.07950896 0.3463457 4.18349151 0 0 Z " fill="#22C1E0" transform="translate(245,48)"/>
<path d="M0 0 C0.66 0.33 1.32 0.66 2 1 C-0.14822047 4.2223307 -1.7274751 5.08437567 -5 7 C-7.97466703 9.33723838 -8.49821137 11.28676414 -9 15 C-10.32 15 -11.64 15 -13 15 C-11.58884686 11.87729974 -9.889376 9.50346319 -7.625 6.9375 C-7.03976563 6.26589844 -6.45453125 5.59429687 -5.8515625 4.90234375 C-4.0239296 3.02458589 -2.13635135 1.51050393 0 0 Z " fill="#38BBD1" transform="translate(34,39)"/>
<path d="M0 0 C3.3 0.33 6.6 0.66 10 1 C10.33 1.99 10.66 2.98 11 4 C12.65 4 14.3 4 16 4 C15.34 4.66 14.68 5.32 14 6 C12.68 6 11.36 6 10 6 C10 5.34 10 4.68 10 4 C8.906875 3.896875 7.81375 3.79375 6.6875 3.6875 C3 3 3 3 0 0 Z " fill="#26BFDA" transform="translate(192,215)"/>
<path d="M0 0 C3.11799003 0.75035741 6.18070403 1.63363411 9.25 2.5625 C10.14203125 2.83191406 11.0340625 3.10132812 11.953125 3.37890625 C12.62859375 3.58386719 13.3040625 3.78882812 14 4 C14 4.66 14 5.32 14 6 C6.575 5.01 6.575 5.01 -1 4 C-0.67 2.68 -0.34 1.36 0 0 Z " fill="#1CC1E2" transform="translate(192,98)"/>
<path d="M0 0 C2.4375 0.375 2.4375 0.375 5 1 C5.33 1.66 5.66 2.32 6 3 C7.64363134 3.72159424 9.31050386 4.39351421 11 5 C9.02 5.99 9.02 5.99 7 7 C7 7.66 7 8.32 7 9 C5 8 5 8 4.0625 6 C3.1108154 3.65391779 3.1108154 3.65391779 0 3 C0 2.01 0 1.02 0 0 Z " fill="#20C3E1" transform="translate(203,210)"/>
<path d="M0 0 C4.12751449 0.60698743 7.3321148 2.03810791 11 4 C10.67 5.32 10.34 6.64 10 8 C9.01 7.67 8.02 7.34 7 7 C7 6.01 7 5.02 7 4 C5.824375 3.7834375 5.824375 3.7834375 4.625 3.5625 C2 3 2 3 0 2 C0 1.34 0 0.68 0 0 Z " fill="#1CC2E3" transform="translate(226,186)"/>
<path d="M0 0 C4.76414273 3.57310705 7.37082252 6.64052284 10 12 C10 12.66 10 13.32 10 14 C9.01 14 8.02 14 7 14 C5 11 5 11 4.0625 8 C3.02492314 5.07037122 2.22468373 4.02243975 0 2 C0 1.34 0 0.68 0 0 Z " fill="#1A7587" transform="translate(244,43)"/>
<path d="M0 0 C1.32 0.33 2.64 0.66 4 1 C3.01 1.495 3.01 1.495 2 2 C2 10.25 2 18.5 2 27 C1.67 27 1.34 27 1 27 C0.67 18.09 0.34 9.18 0 0 Z " fill="#093E4F" transform="translate(17,157)"/>
<path d="M0 0 C-2.94428924 0.98142975 -5.48384061 1.37184518 -8.5625 1.6875 C-9.53316406 1.79449219 -10.50382812 1.90148437 -11.50390625 2.01171875 C-14 2 -14 2 -16 0 C-14.12696296 -1.87303704 -11.08263116 -1.47495882 -8.5625 -1.6875 C-7.38816406 -1.79449219 -6.21382812 -1.90148437 -5.00390625 -2.01171875 C-2 -2 -2 -2 0 0 Z " fill="#19C3E3" transform="translate(96,203)"/>
<path d="M0 0 C2.31 0.33 4.62 0.66 7 1 C7.33 1.99 7.66 2.98 8 4 C10.01508358 4.73323796 10.01508358 4.73323796 12 5 C11.01 5.66 10.02 6.32 9 7 C6.03 5.35 3.06 3.7 0 2 C0 1.34 0 0.68 0 0 Z " fill="#1EC3E2" transform="translate(38,182)"/>
<path d="M0 0 C0.66 0.33 1.32 0.66 2 1 C0.29042423 3.95126765 -0.57592898 4.87964785 -3.91796875 5.828125 C-4.99691406 5.96734375 -6.07585937 6.1065625 -7.1875 6.25 C-8.81751953 6.47429687 -8.81751953 6.47429687 -10.48046875 6.703125 C-11.31191406 6.80109375 -12.14335937 6.8990625 -13 7 C-10.66594735 4.66594735 -8.49548258 3.68805713 -5.5 2.3125 C-4.03046875 1.62607422 -4.03046875 1.62607422 -2.53125 0.92578125 C-1.6959375 0.62027344 -0.860625 0.31476563 0 0 Z " fill="#156A7C" transform="translate(231,177)"/>
<path d="M0 0 C1.4370809 -0.05422947 2.87475462 -0.09289723 4.3125 -0.125 C5.11300781 -0.14820312 5.91351563 -0.17140625 6.73828125 -0.1953125 C9 0 9 0 12 2 C5.6 5.07692308 5.6 5.07692308 2.5625 4.6875 C2.046875 4.460625 1.53125 4.23375 1 4 C1.99 3.67 2.98 3.34 4 3 C2.68 2.67 1.36 2.34 0 2 C0 1.34 0 0.68 0 0 Z " fill="#21C1DD" transform="translate(177,106)"/>
<path d="M0 0 C0.99 0.33 1.98 0.66 3 1 C3.8252404 4.30096158 4.37001429 6.8033 3 10 C2.01 10.33 1.02 10.66 0 11 C0 7.37 0 3.74 0 0 Z " fill="#03C6DF" transform="translate(21,164)"/>
<path d="M0 0 C0.66 0.33 1.32 0.66 2 1 C2 1.66 2 2.32 2 3 C2.66 3.33 3.32 3.66 4 4 C2.2984375 4.2165625 2.2984375 4.2165625 0.5625 4.4375 C-2.80777201 4.61171478 -2.80777201 4.61171478 -4 6 C-5.99958364 6.04080783 -8.00045254 6.04254356 -10 6 C-9 4 -9 4 -6.125 3 C-5.09375 2.67 -4.0625 2.34 -3 2 C-2.01 1.34 -1.02 0.68 0 0 Z " fill="#19C3DE" transform="translate(78,138)"/>
<path d="M0 0 C0.33 0.99 0.66 1.98 1 3 C-0.36328125 5.2265625 -0.36328125 5.2265625 -2.3125 7.625 C-2.94800781 8.42164063 -3.58351562 9.21828125 -4.23828125 10.0390625 C-6 12 -6 12 -8 13 C-8.33 11.68 -8.66 10.36 -9 9 C-7.68 8.67 -6.36 8.34 -5 8 C-4.67 6.68 -4.34 5.36 -4 4 C-3.01 4 -2.02 4 -1 4 C-0.67 2.68 -0.34 1.36 0 0 Z " fill="#1D7385" transform="translate(252,131)"/>
<path d="M0 0 C-3.70401128 2.46934085 -6.70587865 2.44928433 -11 2 C-13.5 1 -13.5 1 -15 0 C-9.77254141 -1.2063366 -5.23471686 -0.75612577 0 0 Z " fill="#2DC2DB" transform="translate(163,18)"/>
<path d="M0 0 C6.4 -0.49230769 6.4 -0.49230769 9.4375 2 C10.2109375 2.99 10.2109375 2.99 11 4 C10.34 4.66 9.68 5.32 9 6 C8.443125 5.54625 7.88625 5.0925 7.3125 4.625 C4.94686561 2.96266232 2.70984342 1.97855457 0 1 C0 0.67 0 0.34 0 0 Z " fill="#10C5DB" transform="translate(32,201)"/>
<path d="M0 0 C1 2 1 2 0.87890625 4.015625 C0 6 0 6 -2.28515625 7.046875 C-3.20167969 7.27890625 -4.11820313 7.5109375 -5.0625 7.75 C-6.44115234 8.11351563 -6.44115234 8.11351563 -7.84765625 8.484375 C-8.55792969 8.65453125 -9.26820313 8.8246875 -10 9 C-6.85281112 5.7317654 -3.50647501 2.8689341 0 0 Z " fill="#34BAD1" transform="translate(247,110)"/>
<path d="M0 0 C0 0.66 0 1.32 0 2 C-3.3 3.32 -6.6 4.64 -10 6 C-10.66 5.01 -11.32 4.02 -12 3 C-10.75336669 2.49166409 -9.50250613 1.99368855 -8.25 1.5 C-7.55390625 1.2215625 -6.8578125 0.943125 -6.140625 0.65625 C-4 0 -4 0 0 0 Z " fill="#1BC2E2" transform="translate(64,150)"/>
<path d="M0 0 C0.33 0 0.66 0 1 0 C0.938125 1.2375 0.87625 2.475 0.8125 3.75 C0.79637174 6.78211302 0.89348977 7.82248296 2.5 10.5 C2.995 10.995 3.49 11.49 4 12 C-0.20626034 10.49776416 -1.73900021 7.71449966 -4 4 C-3.01 4 -2.02 4 -1 4 C-0.67 2.68 -0.34 1.36 0 0 Z " fill="#1E95AA" transform="translate(31,136)"/>
<path d="M0 0 C1.875 0.1875 1.875 0.1875 4 1 C5.25 3.5625 5.25 3.5625 6 6 C4.02 6 2.04 6 0 6 C0 4.02 0 2.04 0 0 Z " fill="#1FC3E0" transform="translate(24,119)"/>
<path d="M0 0 C2 2 2 2 2.125 4.625 C2.08375 5.40875 2.0425 6.1925 2 7 C2.66 7 3.32 7 4 7 C4 8.65 4 10.3 4 12 C3.34 12 2.68 12 2 12 C-0.13586678 8.79619983 -0.23132175 7.98060033 -0.125 4.3125 C-0.10695312 3.50425781 -0.08890625 2.69601563 -0.0703125 1.86328125 C-0.04710937 1.24839844 -0.02390625 0.63351563 0 0 Z " fill="#21C1E2" transform="translate(240,50)"/>
<path d="M0 0 C4.82360189 -0.19294408 8.49646738 0.24252386 13 2 C13 2.33 13 2.66 13 3 C8.07872966 3.16682272 4.49656104 3.24828052 0 1 C0 0.67 0 0.34 0 0 Z " fill="#30B6CC" transform="translate(81,165)"/>
<path d="M0 0 C1.77433812 0.93084971 3.54435149 1.86994613 5.3125 2.8125 C6.29863281 3.33457031 7.28476562 3.85664062 8.30078125 4.39453125 C10.61665068 5.7719876 12.23611001 6.99530591 14 9 C3.76923077 6.63905325 3.76923077 6.63905325 0 2 C0 1.34 0 0.68 0 0 Z " fill="#165F75" transform="translate(29,112)"/>
<path d="M0 0 C0.94875 0.350625 1.8975 0.70125 2.875 1.0625 C2.875 2.0525 2.875 3.0425 2.875 4.0625 C-0.095 3.7325 -3.065 3.4025 -6.125 3.0625 C-5.795 2.0725 -5.465 1.0825 -5.125 0.0625 C-3.125 -0.9375 -3.125 -0.9375 0 0 Z " fill="#1BC4DE" transform="translate(101.125,106.9375)"/>
<path d="M0 0 C3.3 0.33 6.6 0.66 10 1 C10 1.66 10 2.32 10 3 C6.7 3 3.4 3 0 3 C0 2.01 0 1.02 0 0 Z " fill="#1FC2E3" transform="translate(176,99)"/>
<path d="M0 0 C4.08718695 -0.24042276 7.17679443 0.57741188 11 2 C11 2.66 11 3.32 11 4 C7.37 3.67 3.74 3.34 0 3 C0 2.01 0 1.02 0 0 Z " fill="#14C4E3" transform="translate(80,162)"/>
<path d="M0 0 C0.99 0.33 1.98 0.66 3 1 C3 1.66 3 2.32 3 3 C2.67 3.33 2.34 3.66 2 4 C2 4.99 2 5.98 2 7 C1.01 6.67 0.02 6.34 -1 6 C-1.33 4.35 -1.66 2.7 -2 1 C-1.34 0.67 -0.68 0.34 0 0 Z " fill="#28C2E0" transform="translate(239,196)"/>
<path d="M0 0 C0.33 0.66 0.66 1.32 1 2 C0.07421875 3.9453125 0.07421875 3.9453125 -1.3125 6.125 C-1.76238281 6.84945312 -2.21226562 7.57390625 -2.67578125 8.3203125 C-3.11277344 8.87460938 -3.54976562 9.42890625 -4 10 C-4.66 10 -5.32 10 -6 10 C-6 8.35 -6 6.7 -6 5 C-4.68 5 -3.36 5 -2 5 C-1.34 3.35 -0.68 1.7 0 0 Z " fill="#1A798F" transform="translate(253,187)"/>
<path d="M0 0 C2.97 0 5.94 0 9 0 C9 0.66 9 1.32 9 2 C6.29120665 3.35439668 3.99066732 3.06501451 1 3 C0.67 2.01 0.34 1.02 0 0 Z " fill="#1BC3E2" transform="translate(214,150)"/>
<path d="M0 0 C2.8125 0.625 2.8125 0.625 6 2 C7.875 5.125 7.875 5.125 9 8 C5.18284914 6.44486447 2.77292558 4.00400272 0 1 C0 0.67 0 0.34 0 0 Z " fill="#217D8D" transform="translate(25,82)"/>
<path d="M0 0 C0.66 0.33 1.32 0.66 2 1 C2 1.99 2 2.98 2 4 C3.32 4.33 4.64 4.66 6 5 C5.67 5.66 5.34 6.32 5 7 C2.13275314 6.42655063 1.1385485 6.1385485 -1 4 C-0.625 1.875 -0.625 1.875 0 0 Z " fill="#1FC1E2" transform="translate(225,34)"/>
<path d="M0 0 C1.45792884 -0.05399736 2.91642712 -0.09279177 4.375 -0.125 C5.18710938 -0.14820312 5.99921875 -0.17140625 6.8359375 -0.1953125 C9 0 9 0 11 2 C7.7 2.33 4.4 2.66 1 3 C0.67 2.01 0.34 1.02 0 0 Z " fill="#1CC1E3" transform="translate(80,24)"/>
<path d="M0 0 C0.99 0 1.98 0 3 0 C3 1.32 3 2.64 3 4 C2.01 4 1.02 4 0 4 C0 5.32 0 6.64 0 8 C-0.66 8 -1.32 8 -2 8 C-1.125 2.25 -1.125 2.25 0 0 Z " fill="#1AC3E3" transform="translate(32,184)"/>
<path d="M0 0 C2.64 0 5.28 0 8 0 C8 0.99 8 1.98 8 3 C2.25 3.125 2.25 3.125 0 2 C0 1.34 0 0.68 0 0 Z " fill="#35BFDE" transform="translate(160,168)"/>
<path d="M0 0 C0.66 0.99 1.32 1.98 2 3 C0.54293274 3.50367757 -0.91570096 4.00282556 -2.375 4.5 C-3.59316406 4.91765625 -3.59316406 4.91765625 -4.8359375 5.34375 C-7 6 -7 6 -9 6 C-9 5.34 -9 4.68 -9 4 C-7.88625 3.71125 -6.7725 3.4225 -5.625 3.125 C-1.99708908 2.30758671 -1.99708908 2.30758671 0 0 Z " fill="#14C3E5" transform="translate(194,159)"/>
<path d="M0 0 C-1.6188996 1.03048037 -3.24532489 2.04914678 -4.875 3.0625 C-5.77992188 3.63097656 -6.68484375 4.19945312 -7.6171875 4.78515625 C-8.40351563 5.18605469 -9.18984375 5.58695313 -10 6 C-10.66 5.67 -11.32 5.34 -12 5 C-8.98541648 1.5216344 -4.71726343 -2.35863172 0 0 Z " fill="#1C687B" transform="translate(238,150)"/>
<path d="M0 0 C0.99 0 1.98 0 3 0 C3.433125 1.3303125 3.433125 1.3303125 3.875 2.6875 C4.83148748 5.50382424 5.86798946 8.25083156 7 11 C6.34 11 5.68 11 5 11 C4.16151196 9.54462432 3.32936066 8.08559627 2.5 6.625 C1.80390625 5.40683594 1.80390625 5.40683594 1.09375 4.1640625 C0 2 0 2 0 0 Z " fill="#42B9D0" transform="translate(20,128)"/>
<path d="M0 0 C-1.61992165 0.86375896 -3.24611861 1.71575854 -4.875 2.5625 C-6.23238281 3.27599609 -6.23238281 3.27599609 -7.6171875 4.00390625 C-8.40351563 4.33261719 -9.18984375 4.66132812 -10 5 C-10.66 4.67 -11.32 4.34 -12 4 C-11.01 3.67 -10.02 3.34 -9 3 C-9 2.01 -9 1.02 -9 0 C-3.375 -1.125 -3.375 -1.125 0 0 Z " fill="#157287" transform="translate(233,96)"/>
<path d="M0 0 C0.99 0.33 1.98 0.66 3 1 C3 3.64 3 6.28 3 9 C2.01 9.495 2.01 9.495 1 10 C0.67 6.7 0.34 3.4 0 0 Z " fill="#1EC3E1" transform="translate(27,177)"/>
<path d="M0 0 C3.3 0.99 6.6 1.98 10 3 C9.67 3.99 9.34 4.98 9 6 C5.06326356 4.68775452 2.77280706 3.08089673 0 0 Z " fill="#187284" transform="translate(34,90)"/>
<path d="M0 0 C0.99 0 1.98 0 3 0 C2.30058404 3.14737182 1.23921302 6.02588876 0 9 C-0.66 9 -1.32 9 -2 9 C-1.41196203 5.97580475 -0.77321882 2.98241547 0 0 Z " fill="#20C3DF" transform="translate(30,64)"/>
<path d="M0 0 C1.65 0.33 3.3 0.66 5 1 C5 1.66 5 2.32 5 3 C2.29120665 4.35439668 -0.00933268 4.06501451 -3 4 C-2.01 2.68 -1.02 1.36 0 0 Z " fill="#10C6DE" transform="translate(197,218)"/>
<path d="M0 0 C-0.99 1.485 -0.99 1.485 -2 3 C-2.66 3 -3.32 3 -4 3 C-4 3.66 -4 4.32 -4 5 C-4.66 5 -5.32 5 -6 5 C-6 3.35 -6 1.7 -6 0 C-3 -1 -3 -1 0 0 Z " fill="#1D8A9F" transform="translate(244,144)"/>
<path d="M0 0 C0.33 0.99 0.66 1.98 1 3 C2.32 3 3.64 3 5 3 C5.66 4.32 6.32 5.64 7 7 C4.69 6.34 2.38 5.68 0 5 C0 3.35 0 1.7 0 0 Z " fill="#1CC3E0" transform="translate(23,128)"/>
<path d="M0 0 C1.65 0 3.3 0 5 0 C5.33 1.32 5.66 2.64 6 4 C4.35 3.67 2.7 3.34 1 3 C0.67 2.01 0.34 1.02 0 0 Z " fill="#1FC3E1" transform="translate(32,122)"/>
<path d="M0 0 C0.66 0 1.32 0 2 0 C2.25 2.3125 2.25 2.3125 2 5 C0 6.8125 0 6.8125 -2 8 C-1.125 1.125 -1.125 1.125 0 0 Z " fill="#24C2E2" transform="translate(28,56)"/>
<path d="M0 0 C0.66 0.33 1.32 0.66 2 1 C-0.25 3.5625 -0.25 3.5625 -3 6 C-4.32 5.67 -5.64 5.34 -7 5 C-4.69 3.35 -2.38 1.7 0 0 Z " fill="#156072" transform="translate(240,171)"/>
<path d="M0 0 C0.99 0 1.98 0 3 0 C3 1.65 3 3.3 3 5 C0.5625 4.625 0.5625 4.625 -2 4 C-2.33 3.34 -2.66 2.68 -3 2 C-2.01 2 -1.02 2 0 2 C0 1.34 0 0.68 0 0 Z " fill="#35B7D2" transform="translate(61,156)"/>
<path d="M0 0 C1.98 0 3.96 0 6 0 C5.01 0.495 5.01 0.495 4 1 C4 1.99 4 2.98 4 4 C2.68 4 1.36 4 0 4 C0 2.68 0 1.36 0 0 Z " fill="#1DC3E1" transform="translate(208,153)"/>
<path d="M0 0 C2.97 0 5.94 0 9 0 C9 0.66 9 1.32 9 2 C6.21176345 3.0326802 5.1322726 3.04509293 2.25 2.0625 C1.5075 1.711875 0.765 1.36125 0 1 C0 0.67 0 0.34 0 0 Z " fill="#20BBD0" transform="translate(201,133)"/>
<path d="M0 0 C0.66 0.33 1.32 0.66 2 1 C1.625 3.9375 1.625 3.9375 1 7 C0.01 7.495 0.01 7.495 -1 8 C-1.04241723 5.66705225 -1.04092937 3.33297433 -1 1 C-0.67 0.67 -0.34 0.34 0 0 Z " fill="#16C3E5" transform="translate(31,74)"/>
<path d="M0 0 C-1.32 0.33 -2.64 0.66 -4 1 C-4 1.66 -4 2.32 -4 3 C-5.32 2.67 -6.64 2.34 -8 2 C-8 1.34 -8 0.68 -8 0 C-4.94736336 -0.98120464 -3.05263664 -0.98120464 0 0 Z " fill="#27BAD4" transform="translate(68,101)"/>
<path d="M0 0 C-0.33 0.66 -0.66 1.32 -1 2 C-0.34 2.66 0.32 3.32 1 4 C-1.375 3.6875 -1.375 3.6875 -4 3 C-4.66 2.01 -5.32 1.02 -6 0 C-3 -1 -3 -1 0 0 Z " fill="#29C3D7" transform="translate(38,87)"/>
<path d="M0 0 C0.99 0 1.98 0 3 0 C2.625 2.9375 2.625 2.9375 2 6 C1.01 6.495 1.01 6.495 0 7 C0 4.69 0 2.38 0 0 Z " fill="#00C7DF" transform="translate(250,67)"/>
<path d="M0 0 C1.98 0.66 3.96 1.32 6 2 C6 2.66 6 3.32 6 4 C6.66 4.33 7.32 4.66 8 5 C7.01 5.495 7.01 5.495 6 6 C3.96166576 4.7260411 1.96147874 3.38938077 0 2 C0 1.34 0 0.68 0 0 Z " fill="#18C2E3" transform="translate(234,42)"/>
</svg>
